<svg xmlns="http://www.w3.org/2000/svg" xmlns:xlink="http://www.w3.org/1999/xlink" width="40" zoomAndPan="magnify" viewBox="0 0 30 30.000001" height="40" preserveAspectRatio="xMidYMid meet" version="1.0"><defs><clipPath id="e8eed6b2f7"><path d="M 0.484375 0 L 29.515625 0 L 29.515625 29.03125 L 0.484375 29.03125 Z M 0.484375 0 " clip-rule="nonzero"/></clipPath><clipPath id="5e6edc3743"><path d="M 13 3.554688 L 16 3.554688 L 16 6 L 13 6 Z M 13 3.554688 " clip-rule="nonzero"/></clipPath><clipPath id="80a39b9bae"><path d="M 5 20 L 25 20 L 25 25.332031 L 5 25.332031 Z M 5 20 " clip-rule="nonzero"/></clipPath><clipPath id="20d500d54c"><path d="M 0.484375 12 L 6 12 L 6 15 L 0.484375 15 Z M 0.484375 12 " clip-rule="nonzero"/></clipPath><clipPath id="b3a3c4fa48"><path d="M 24 12 L 29.515625 12 L 29.515625 15 L 24 15 Z M 24 12 " clip-rule="nonzero"/></clipPath></defs><g clip-path="url(#e8eed6b2f7)"><path fill="#ffffff" d="M 0.484375 0 L 29.515625 0 L 29.515625 36.289062 L 0.484375 36.289062 Z M 0.484375 0 " fill-opacity="1" fill-rule="nonzero"/><path fill="#ffffff" d="M 0.484375 0 L 29.515625 0 L 29.515625 29.03125 L 0.484375 29.03125 Z M 0.484375 0 " fill-opacity="1" fill-rule="nonzero"/><path fill="#ffffff" d="M 0.484375 0 L 29.515625 0 L 29.515625 29.03125 L 0.484375 29.03125 Z M 0.484375 0 " fill-opacity="1" fill-rule="nonzero"/></g><path fill="#ffdf48" d="M 18.042969 17.539062 L 17.429688 18.804688 L 16.703125 17.011719 L 15.925781 19.433594 L 15.1875 16.605469 L 14.492188 19.757812 L 13.484375 16.554688 L 12.796875 19.160156 L 11.867188 17.046875 L 11.660156 17.535156 L 7.804688 17.535156 L 7.804688 18.308594 C 7.804688 18.566406 7.855469 18.8125 7.953125 19.046875 C 8.050781 19.285156 8.191406 19.496094 8.375 19.675781 C 8.554688 19.855469 8.765625 19.996094 9.003906 20.09375 C 9.242188 20.191406 9.492188 20.242188 9.75 20.242188 L 19.800781 20.242188 C 20.058594 20.242188 20.308594 20.191406 20.546875 20.09375 C 20.785156 19.996094 20.996094 19.855469 21.175781 19.675781 C 21.359375 19.496094 21.5 19.285156 21.597656 19.046875 C 21.695312 18.8125 21.746094 18.566406 21.746094 18.308594 L 21.746094 17.535156 Z M 18.042969 17.539062 " fill-opacity="1" fill-rule="nonzero"/><path fill="#809f9e" d="M 14.90625 5.832031 C 14.769531 5.832031 14.636719 5.804688 14.507812 5.753906 L 14.507812 7.5 L 15.304688 7.5 L 15.304688 5.753906 C 15.175781 5.804688 15.042969 5.832031 14.90625 5.832031 Z M 14.90625 5.832031 " fill-opacity="1" fill-rule="nonzero"/><g clip-path="url(#5e6edc3743)"><path fill="#ffdf48" d="M 15.078125 3.722656 C 15.214844 3.746094 15.347656 3.796875 15.464844 3.867188 C 15.585938 3.941406 15.6875 4.039062 15.769531 4.152344 C 15.851562 4.265625 15.910156 4.390625 15.941406 4.527344 C 15.976562 4.664062 15.980469 4.800781 15.957031 4.941406 C 15.933594 5.078125 15.886719 5.210938 15.8125 5.328125 C 15.738281 5.449219 15.644531 5.550781 15.527344 5.632812 C 15.414062 5.714844 15.289062 5.769531 15.148438 5.800781 C 15.011719 5.835938 14.871094 5.839844 14.734375 5.816406 C 14.59375 5.792969 14.464844 5.746094 14.34375 5.671875 C 14.222656 5.597656 14.121094 5.503906 14.039062 5.390625 C 13.957031 5.277344 13.898438 5.152344 13.867188 5.011719 C 13.835938 4.875 13.828125 4.738281 13.851562 4.601562 C 13.875 4.460938 13.921875 4.332031 13.996094 4.210938 C 14.070312 4.09375 14.167969 3.992188 14.28125 3.910156 C 14.394531 3.828125 14.523438 3.769531 14.660156 3.738281 C 14.796875 3.707031 14.9375 3.703125 15.078125 3.722656 Z M 15.078125 3.722656 " fill-opacity="1" fill-rule="nonzero"/></g><path fill="#809f9e" d="M 10.855469 20.242188 L 18.695312 20.242188 L 18.695312 20.601562 L 10.855469 20.601562 Z M 10.855469 20.242188 " fill-opacity="1" fill-rule="nonzero"/><g clip-path="url(#80a39b9bae)"><path fill="#ffdf48" d="M 24.28125 25.324219 L 24.28125 23.59375 C 24.277344 23.195312 24.199219 22.816406 24.046875 22.453125 C 23.894531 22.085938 23.675781 21.765625 23.394531 21.484375 C 23.113281 21.203125 22.789062 20.988281 22.421875 20.835938 C 22.054688 20.683594 21.671875 20.609375 21.273438 20.609375 L 8.28125 20.609375 C 7.882812 20.609375 7.5 20.6875 7.132812 20.839844 C 6.765625 20.992188 6.441406 21.207031 6.160156 21.484375 C 5.878906 21.765625 5.660156 22.085938 5.507812 22.453125 C 5.355469 22.816406 5.277344 23.199219 5.277344 23.59375 L 5.277344 25.324219 Z M 24.28125 25.324219 " fill-opacity="1" fill-rule="nonzero"/></g><path fill="#ffdf48" d="M 22.359375 11.832031 L 22.039062 11.734375 L 21.746094 14.378906 L 21.746094 10.945312 C 21.746094 10.53125 21.667969 10.128906 21.507812 9.746094 C 21.347656 9.359375 21.117188 9.019531 20.820312 8.726562 C 20.523438 8.429688 20.183594 8.203125 19.796875 8.046875 C 19.410156 7.886719 19.003906 7.804688 18.585938 7.804688 L 10.964844 7.804688 C 10.546875 7.804688 10.144531 7.886719 9.757812 8.042969 C 9.371094 8.203125 9.03125 8.429688 8.734375 8.722656 C 8.441406 9.011719 8.210938 9.351562 8.050781 9.734375 C 7.890625 10.117188 7.808594 10.515625 7.804688 10.929688 L 7.804688 14.378906 L 7.527344 11.847656 L 7.191406 11.941406 C 6.839844 12.042969 6.59375 12.417969 6.59375 12.847656 L 6.59375 15.335938 C 6.59375 15.765625 6.839844 16.136719 7.195312 16.242188 L 7.804688 16.421875 L 7.804688 16.972656 L 11.277344 16.972656 L 11.863281 15.605469 L 12.660156 17.421875 L 13.433594 14.476562 L 14.390625 17.519531 L 15.136719 14.144531 L 15.980469 17.371094 L 16.636719 15.324219 L 17.476562 17.382812 L 17.679688 16.964844 L 21.746094 16.964844 L 21.746094 16.414062 L 22.359375 16.234375 C 22.710938 16.128906 22.960938 15.746094 22.960938 15.308594 L 22.960938 12.757812 C 22.960938 12.316406 22.710938 11.933594 22.359375 11.832031 Z M 11.65625 13.910156 C 11.386719 13.910156 11.132812 13.859375 10.886719 13.757812 C 10.640625 13.65625 10.421875 13.511719 10.234375 13.324219 C 10.046875 13.136719 9.902344 12.921875 9.796875 12.679688 C 9.695312 12.433594 9.644531 12.179688 9.644531 11.914062 C 9.644531 11.648438 9.695312 11.394531 9.800781 11.148438 C 9.902344 10.90625 10.046875 10.6875 10.234375 10.503906 C 10.421875 10.316406 10.640625 10.171875 10.886719 10.070312 C 11.132812 9.96875 11.390625 9.917969 11.65625 9.917969 C 11.921875 9.917969 12.179688 9.96875 12.425781 10.070312 C 12.671875 10.171875 12.886719 10.316406 13.074219 10.503906 C 13.265625 10.691406 13.410156 10.90625 13.511719 11.152344 C 13.613281 11.394531 13.664062 11.648438 13.664062 11.914062 C 13.664062 12.179688 13.613281 12.433594 13.511719 12.679688 C 13.410156 12.921875 13.265625 13.140625 13.074219 13.328125 C 12.886719 13.515625 12.667969 13.660156 12.421875 13.757812 C 12.175781 13.859375 11.921875 13.910156 11.65625 13.910156 Z M 17.855469 13.949219 C 17.585938 13.949219 17.324219 13.898438 17.074219 13.792969 C 16.824219 13.691406 16.601562 13.542969 16.410156 13.351562 C 16.21875 13.164062 16.070312 12.941406 15.964844 12.691406 C 15.859375 12.445312 15.808594 12.183594 15.808594 11.914062 C 15.808594 11.644531 15.859375 11.382812 15.964844 11.136719 C 16.070312 10.886719 16.21875 10.664062 16.410156 10.476562 C 16.601562 10.285156 16.824219 10.136719 17.074219 10.035156 C 17.324219 9.929688 17.585938 9.878906 17.855469 9.878906 C 18.128906 9.878906 18.390625 9.929688 18.640625 10.035156 C 18.890625 10.136719 19.113281 10.285156 19.304688 10.476562 C 19.496094 10.664062 19.644531 10.886719 19.75 11.136719 C 19.851562 11.382812 19.90625 11.644531 19.90625 11.914062 C 19.90625 12.183594 19.855469 12.445312 19.75 12.695312 C 19.644531 12.941406 19.496094 13.164062 19.304688 13.355469 C 19.113281 13.546875 18.890625 13.691406 18.640625 13.796875 C 18.390625 13.898438 18.128906 13.949219 17.855469 13.949219 Z M 17.855469 13.949219 " fill-opacity="1" fill-rule="nonzero"/><path fill="#414042" d="M 11.65625 10.574219 C 11.476562 10.574219 11.304688 10.609375 11.136719 10.675781 C 10.972656 10.742188 10.828125 10.839844 10.699219 10.964844 C 10.574219 11.09375 10.476562 11.238281 10.40625 11.402344 C 10.339844 11.566406 10.304688 11.738281 10.304688 11.914062 C 10.304688 12.09375 10.339844 12.265625 10.40625 12.429688 C 10.476562 12.59375 10.574219 12.738281 10.699219 12.863281 C 10.828125 12.988281 10.972656 13.085938 11.136719 13.15625 C 11.304688 13.222656 11.476562 13.257812 11.65625 13.257812 C 11.832031 13.257812 12.007812 13.222656 12.171875 13.15625 C 12.335938 13.085938 12.484375 12.988281 12.609375 12.863281 C 12.734375 12.738281 12.832031 12.59375 12.902344 12.429688 C 12.96875 12.265625 13.003906 12.09375 13.003906 11.914062 C 13.003906 11.738281 12.96875 11.566406 12.902344 11.402344 C 12.832031 11.238281 12.734375 11.09375 12.609375 10.964844 C 12.484375 10.839844 12.335938 10.742188 12.171875 10.675781 C 12.007812 10.609375 11.832031 10.574219 11.65625 10.574219 Z M 11.773438 12.285156 C 11.589844 12.285156 11.433594 12.21875 11.304688 12.089844 C 11.175781 11.960938 11.113281 11.808594 11.113281 11.625 C 11.113281 11.445312 11.175781 11.289062 11.304688 11.160156 C 11.433594 11.03125 11.589844 10.96875 11.773438 10.96875 C 11.957031 10.96875 12.113281 11.03125 12.242188 11.160156 C 12.371094 11.289062 12.4375 11.445312 12.4375 11.625 C 12.4375 11.808594 12.371094 11.960938 12.242188 12.089844 C 12.113281 12.21875 11.957031 12.285156 11.773438 12.285156 Z M 11.773438 12.285156 " fill-opacity="1" fill-rule="nonzero"/><path fill="#414042" d="M 17.855469 10.546875 C 17.675781 10.546875 17.5 10.582031 17.332031 10.652344 C 17.160156 10.722656 17.011719 10.820312 16.882812 10.949219 C 16.753906 11.078125 16.65625 11.222656 16.585938 11.390625 C 16.515625 11.558594 16.480469 11.734375 16.480469 11.914062 C 16.480469 12.097656 16.515625 12.269531 16.585938 12.4375 C 16.65625 12.605469 16.753906 12.753906 16.882812 12.882812 C 17.011719 13.011719 17.160156 13.109375 17.332031 13.179688 C 17.5 13.25 17.675781 13.28125 17.855469 13.28125 C 18.039062 13.28125 18.214844 13.25 18.382812 13.179688 C 18.550781 13.109375 18.703125 13.011719 18.832031 12.882812 C 18.960938 12.753906 19.058594 12.605469 19.128906 12.4375 C 19.199219 12.269531 19.234375 12.097656 19.234375 11.914062 C 19.234375 11.734375 19.199219 11.558594 19.128906 11.390625 C 19.058594 11.222656 18.960938 11.078125 18.832031 10.949219 C 18.703125 10.820312 18.550781 10.722656 18.382812 10.652344 C 18.214844 10.582031 18.039062 10.546875 17.855469 10.546875 Z M 17.980469 12.289062 C 17.792969 12.289062 17.632812 12.226562 17.503906 12.09375 C 17.371094 11.960938 17.304688 11.804688 17.304688 11.621094 C 17.304688 11.433594 17.371094 11.277344 17.503906 11.144531 C 17.636719 11.015625 17.792969 10.949219 17.980469 10.949219 C 18.167969 10.949219 18.324219 11.015625 18.457031 11.144531 C 18.589844 11.277344 18.65625 11.433594 18.65625 11.621094 C 18.65625 11.804688 18.589844 11.964844 18.457031 12.09375 C 18.324219 12.226562 18.164062 12.289062 17.980469 12.289062 Z M 17.980469 12.289062 " fill-opacity="1" fill-rule="nonzero"/><path fill="#809f9e" d="M 3.542969 18.101562 L 3.542969 14.363281 C 3.085938 14.5 2.628906 14.5 2.167969 14.363281 L 2.167969 18.101562 C 2.167969 19.289062 2.445312 20.410156 2.992188 21.464844 C 3.539062 22.519531 4.296875 23.390625 5.269531 24.082031 L 5.269531 23.59375 C 5.269531 23.214844 5.339844 22.847656 5.480469 22.496094 C 4.863281 21.929688 4.386719 21.265625 4.046875 20.5 C 3.710938 19.734375 3.542969 18.933594 3.542969 18.101562 Z M 3.542969 18.101562 " fill-opacity="1" fill-rule="nonzero"/><g clip-path="url(#20d500d54c)"><path fill="#ffdf48" d="M 2.855469 14.464844 C 2.542969 14.460938 2.242188 14.402344 1.953125 14.285156 C 1.664062 14.164062 1.410156 13.996094 1.1875 13.773438 C 0.964844 13.554688 0.796875 13.300781 0.675781 13.015625 C 0.554688 12.726562 0.496094 12.429688 0.496094 12.117188 L 1.796875 12.117188 C 1.796875 12.257812 1.824219 12.390625 1.875 12.519531 C 1.929688 12.648438 2.007812 12.761719 2.105469 12.863281 C 2.207031 12.960938 2.320312 13.035156 2.449219 13.089844 C 2.582031 13.144531 2.714844 13.171875 2.855469 13.171875 C 2.996094 13.171875 3.132812 13.144531 3.261719 13.089844 C 3.390625 13.035156 3.507812 12.960938 3.605469 12.863281 C 3.707031 12.761719 3.78125 12.648438 3.835938 12.519531 C 3.890625 12.390625 3.917969 12.257812 3.917969 12.117188 L 5.21875 12.117188 C 5.21875 12.429688 5.15625 12.726562 5.035156 13.015625 C 4.917969 13.300781 4.746094 13.554688 4.523438 13.773438 C 4.304688 13.996094 4.046875 14.164062 3.757812 14.285156 C 3.46875 14.402344 3.167969 14.460938 2.855469 14.464844 Z M 2.855469 14.464844 " fill-opacity="1" fill-rule="nonzero"/></g><path fill="#809f9e" d="M 27.144531 14.417969 C 26.910156 14.417969 26.679688 14.382812 26.457031 14.3125 L 26.457031 18.054688 C 26.457031 18.96875 26.253906 19.839844 25.851562 20.664062 C 25.449219 21.488281 24.886719 22.183594 24.160156 22.753906 C 24.242188 23.027344 24.285156 23.308594 24.285156 23.59375 L 24.285156 24.328125 C 24.824219 24 25.316406 23.609375 25.757812 23.15625 C 26.199219 22.703125 26.574219 22.203125 26.886719 21.652344 C 27.195312 21.101562 27.429688 20.523438 27.59375 19.914062 C 27.753906 19.304688 27.832031 18.683594 27.832031 18.054688 L 27.832031 14.3125 C 27.609375 14.382812 27.378906 14.417969 27.144531 14.417969 Z M 27.144531 14.417969 " fill-opacity="1" fill-rule="nonzero"/><g clip-path="url(#b3a3c4fa48)"><path fill="#ffdf48" d="M 27.144531 14.417969 C 26.828125 14.414062 26.527344 14.355469 26.238281 14.234375 C 25.949219 14.117188 25.695312 13.945312 25.476562 13.726562 C 25.253906 13.507812 25.082031 13.253906 24.960938 12.964844 C 24.84375 12.679688 24.78125 12.378906 24.78125 12.070312 L 26.082031 12.070312 C 26.082031 12.207031 26.109375 12.34375 26.164062 12.472656 C 26.21875 12.601562 26.292969 12.714844 26.394531 12.8125 C 26.492188 12.914062 26.605469 12.988281 26.738281 13.042969 C 26.867188 13.097656 27.003906 13.121094 27.144531 13.121094 C 27.285156 13.121094 27.417969 13.097656 27.550781 13.042969 C 27.679688 12.988281 27.792969 12.914062 27.894531 12.8125 C 27.992188 12.714844 28.070312 12.601562 28.121094 12.472656 C 28.175781 12.34375 28.203125 12.207031 28.203125 12.070312 L 29.503906 12.070312 C 29.503906 12.378906 29.445312 12.679688 29.324219 12.964844 C 29.203125 13.253906 29.03125 13.507812 28.8125 13.726562 C 28.589844 13.945312 28.335938 14.117188 28.046875 14.234375 C 27.757812 14.355469 27.457031 14.414062 27.144531 14.417969 Z M 27.144531 14.417969 " fill-opacity="1" fill-rule="nonzero"/></g></svg>